<svg data-v-423bf9ae="" xmlns="http://www.w3.org/2000/svg" viewBox="0 0 412.49238467283345 60" class="font"><!----><!----><defs data-v-423bf9ae=""><linearGradient data-v-423bf9ae="" gradientTransform="rotate(25)" id="1ae4953b-31f2-40fb-9f01-06597fd32156" x1="0%" y1="0%" x2="100%" y2="0%"><stop data-v-423bf9ae="" offset="0%" style="stop-color: rgb(40, 134, 66); stop-opacity: 1;"></stop><stop data-v-423bf9ae="" offset="100%" style="stop-color: rgb(39, 253, 253); stop-opacity: 1;"></stop></linearGradient></defs><g data-v-423bf9ae="" id="741454de-ecc6-4733-9ade-e49ed3e663f9" fill="url(#1ae4953b-31f2-40fb-9f01-06597fd32156)" transform="matrix(6.1037640351658435,0,0,6.1037640351658435,5.957121800292953e-7,-4.089521111358998)"><path d="M4.45 0.70L4.45 8.78L4.45 9.41L4.45 9.41Q4.45 9.81 4.19 10.12L4.19 10.12L4.19 10.12Q3.92 10.43 3.51 10.50L3.51 10.50L0.94 10.50L0.94 10.50Q0.53 10.43 0.27 10.12L0.27 10.12L0.27 10.12Q0 9.81 0 9.41L0 9.41L0 8.36L0 7.91L1.54 7.91L1.54 8.36L1.54 8.97L2.91 8.97L2.91 2.24L2.91 0.70L4.45 0.70ZM6.29 0.70L8.88 0.70L8.88 0.70Q9.27 0.77 9.53 1.08L9.53 1.08L9.53 1.08Q9.80 1.40 9.80 1.81L9.80 1.81L9.80 2.86L9.80 3.28L9.80 3.30L9.80 8.36L9.80 9.41L9.80 9.41Q9.80 9.81 9.53 10.12L9.53 10.12L9.53 10.12Q9.27 10.43 8.88 10.50L8.88 10.50L6.29 10.50L6.29 10.50Q5.89 10.43 5.63 10.12L5.63 10.12L5.63 10.12Q5.36 9.81 5.36 9.41L5.36 9.41L5.36 1.81L5.36 1.81Q5.36 1.40 5.63 1.08L5.63 1.08L5.63 1.08Q5.89 0.77 6.29 0.70L6.29 0.70ZM8.26 3.30L8.26 3.28L8.26 2.86L8.26 2.24L6.90 2.24L6.90 8.97L8.26 8.97L8.26 8.36L8.26 3.30ZM14.64 1.16L14.64 1.16L14.64 1.16Q14.98 1.57 14.98 2.07L14.98 2.07L14.98 3.12L14.98 3.40L14.70 3.40L13.72 3.40L13.44 3.40L13.44 3.12L13.44 2.23L12.26 2.23L12.26 3.98L12.26 4.05L13.58 4.05L13.58 4.05Q14.17 4.05 14.57 4.45L14.57 4.45L14.57 4.45Q14.98 4.86 14.98 5.45L14.98 5.45L14.98 6.85L14.98 9.11L14.98 9.11Q14.98 9.62 14.64 10.02L14.64 10.02L14.64 10.02Q14.31 10.40 13.80 10.49L13.80 10.49L13.78 10.50L13.76 10.50L11.93 10.50L11.91 10.50L11.89 10.49L11.89 10.49Q11.38 10.40 11.05 10.02L11.05 10.02L11.05 10.02Q10.71 9.62 10.71 9.11L10.71 9.11L10.71 8.06L10.71 7.78L10.99 7.78L11.98 7.78L12.26 7.78L12.26 8.06L12.26 8.96L13.44 8.96L13.44 5.60L12.11 5.60L12.11 5.60Q11.52 5.60 11.12 5.19L11.12 5.19L11.12 5.19Q10.71 4.79 10.71 4.20L10.71 4.20L10.71 4.10L10.71 3.98L10.71 2.07L10.71 2.07Q10.71 1.57 11.05 1.16L11.05 1.16L11.05 1.16Q11.38 0.78 11.89 0.70L11.89 0.70L11.91 0.70L11.93 0.70L13.76 0.70L13.78 0.70L13.80 0.70L13.80 0.70Q14.31 0.78 14.64 1.16ZM17.43 0.70L17.43 0.70L19.89 0.70L19.89 1.68L19.89 2.24L17.43 2.24L17.43 4.07L19.39 4.07L19.39 4.35L19.39 5.33L19.39 5.61L17.43 5.61L17.43 8.96L19.89 8.96L19.89 9.52L19.89 10.50L17.43 10.50L15.89 10.50L15.89 9.48L15.89 4.07L17.43 4.07L15.89 1.04L15.89 0.70L17.43 0.70ZM25.24 1.68L25.24 1.67L25.24 1.82L25.24 4.49L25.24 4.49Q25.24 4.96 24.92 5.28L24.92 5.28L24.92 5.28Q24.60 5.60 24.14 5.60L24.14 5.60L22.34 5.60L22.33 10.50L20.80 10.50L20.80 4.06L22.33 4.06L23.70 4.06L23.70 2.25L22.33 2.25L22.33 4.06L20.80 1.02L20.80 0.70L24.14 0.70L24.14 0.70Q24.56 0.70 24.87 0.99L24.87 0.99L24.87 0.99Q25.19 1.27 25.24 1.68L25.24 1.68ZM29.08 0.70L29.08 0.70L30.62 0.70L30.62 10.50L29.08 10.50L29.08 5.60L27.72 5.60L27.72 10.50L26.18 10.50L26.18 4.06L27.71 4.06L26.18 1.02L26.18 0.70L27.72 0.70L27.72 4.06L29.08 4.06L29.08 0.70ZM38.65 0.70L38.65 0.70L38.98 0.70L38.93 1.04L37.35 10.28L37.32 10.50L37.09 10.50L35.74 10.50L35.50 10.50L35.46 10.28L33.89 1.04L33.84 0.70L34.17 0.70L35.17 0.70L35.41 0.70L35.45 0.94L36.41 7.60L37.38 0.94L37.42 0.70L37.66 0.70L38.65 0.70ZM41.31 10.50L41.31 10.50L39.77 10.50L39.77 0.70L41.31 0.70L41.31 10.50ZM46.16 1.16L46.16 1.16L46.16 1.16Q46.49 1.57 46.49 2.07L46.49 2.07L46.49 3.12L46.49 3.40L46.21 3.40L45.23 3.40L44.95 3.40L44.95 3.12L44.95 2.23L43.78 2.23L43.78 3.98L43.78 4.05L45.09 4.05L45.09 4.05Q45.68 4.05 46.09 4.45L46.09 4.45L46.09 4.45Q46.49 4.86 46.49 5.45L46.49 5.45L46.49 6.85L46.49 9.11L46.49 9.11Q46.49 9.62 46.16 10.02L46.16 10.02L46.16 10.02Q45.82 10.40 45.32 10.49L45.32 10.49L45.29 10.50L45.28 10.50L43.44 10.50L43.43 10.50L43.40 10.49L43.40 10.49Q42.90 10.40 42.56 10.02L42.56 10.02L42.56 10.02Q42.22 9.62 42.22 9.11L42.22 9.11L42.22 8.06L42.22 7.78L42.50 7.78L43.50 7.78L43.78 7.78L43.78 8.06L43.78 8.96L44.95 8.96L44.95 5.60L43.62 5.60L43.62 5.60Q43.04 5.60 42.63 5.19L42.63 5.19L42.63 5.19Q42.22 4.79 42.22 4.20L42.22 4.20L42.22 4.10L42.22 3.98L42.22 2.07L42.22 2.07Q42.22 1.57 42.56 1.16L42.56 1.16L42.56 1.16Q42.90 0.78 43.40 0.70L43.40 0.70L43.43 0.70L43.44 0.70L45.28 0.70L45.29 0.70L45.32 0.70L45.32 0.70Q45.82 0.78 46.16 1.16ZM50.32 0.67L51.86 0.67L51.86 9.11L51.86 9.11Q51.86 9.65 51.52 10.02L51.52 10.02L51.52 10.02Q51.18 10.42 50.69 10.49L50.69 10.49L50.67 10.50L50.64 10.50L48.61 10.50L48.59 10.50L48.57 10.49L48.57 10.49Q48.08 10.42 47.74 10.02L47.74 10.02L47.74 10.02Q47.40 9.65 47.40 9.11L47.40 9.11L47.40 0.67L48.94 0.67L48.94 8.97L50.32 8.97L50.32 0.67ZM56.27 0.70L56.27 0.70L57.85 10.50L56.28 10.50L55.31 3.70L54.92 6.90L54.92 6.92L55.31 6.92L55.31 8.46L54.67 8.46L54.35 10.50L52.79 10.50L53.12 8.46L52.77 8.46L52.77 6.92L53.37 6.92L54.36 0.70L56.27 0.70ZM59.93 8.96L59.93 8.96L62.37 8.96L62.37 10.50L59.93 10.50L58.39 10.50L58.39 10.50L58.39 8.96L58.39 8.96L58.39 0.70L59.93 0.70L59.93 8.96ZM67.24 1.16L67.24 1.16L67.24 1.16Q67.58 1.57 67.58 2.07L67.58 2.07L67.58 3.12L67.58 3.40L67.30 3.40L66.32 3.40L66.04 3.40L66.04 3.12L66.04 2.23L64.86 2.23L64.86 3.98L64.86 4.05L66.18 4.05L66.18 4.05Q66.77 4.05 67.17 4.45L67.17 4.45L67.17 4.45Q67.58 4.86 67.58 5.45L67.58 5.45L67.58 6.85L67.58 9.11L67.58 9.11Q67.58 9.62 67.24 10.02L67.24 10.02L67.24 10.02Q66.91 10.40 66.40 10.49L66.40 10.49L66.37 10.50L66.36 10.50L64.53 10.50L64.51 10.50L64.48 10.49L64.48 10.49Q63.98 10.40 63.64 10.02L63.64 10.02L63.64 10.02Q63.31 9.62 63.31 9.11L63.31 9.11L63.31 8.06L63.31 7.78L63.59 7.78L64.58 7.78L64.86 7.78L64.86 8.06L64.86 8.96L66.04 8.96L66.04 5.60L64.71 5.60L64.71 5.60Q64.12 5.60 63.71 5.19L63.71 5.19L63.71 5.19Q63.31 4.79 63.31 4.20L63.31 4.20L63.31 4.10L63.31 3.98L63.31 2.07L63.31 2.07Q63.31 1.57 63.64 1.16L63.64 1.16L63.64 1.16Q63.98 0.78 64.48 0.70L64.48 0.70L64.51 0.70L64.53 0.70L66.36 0.70L66.37 0.70L66.40 0.70L66.40 0.70Q66.91 0.78 67.24 1.16Z"></path></g><!----><!----></svg>